<?xml version="1.0" encoding="UTF-8"?>
<svg version="1.1" xmlns="http://www.w3.org/2000/svg" width="1024" height="1024">
<path d="M0 0 C3.99429493 0.01073211 7.98814032 0.00002533 11.98242188 -0.01269531 C32.57672935 -0.02451084 53.06981841 0.84620726 73.43554688 4.07324219 C74.54349609 4.24428467 75.65144531 4.41532715 76.79296875 4.59155273 C97.21469807 7.81170233 117.15818989 12.13146991 137.11914062 17.50439453 C139.53066624 18.13795172 141.94154252 18.72993055 144.37304688 19.28027344 C155.82299082 21.8922919 166.69463615 25.90972998 177.68066406 30.02099609 C180.95096339 31.24314652 184.22808015 32.4455428 187.50585938 33.64746094 C204.3935996 39.91548145 221.05233431 46.97265256 236.71289062 55.92871094 C239.39590767 57.45064929 241.96246451 58.67402208 244.88085938 59.66699219 C250.30730018 61.58567447 255.01352163 64.72364095 259.87304688 67.76074219 C261.91462545 69.02260348 263.9562932 70.28432049 265.99804688 71.54589844 C267.00738281 72.17254395 268.01671875 72.79918945 269.05664062 73.44482422 C271.75481347 75.11057867 274.465261 76.75252008 277.18554688 78.38183594 C284.05109847 82.500187 290.73292101 86.55652915 296.93164062 91.65136719 C299.35520275 93.53890518 301.88962028 95.13899691 304.49804688 96.76074219 C309.54981045 99.91720377 314.63527136 103.17804609 318.99804688 107.26074219 C318.99804688 107.92074219 318.99804688 108.58074219 318.99804688 109.26074219 C319.53945313 109.504375 320.08085938 109.74800781 320.63867188 109.99902344 C331.04034758 115.56150896 339.73379601 124.56035599 348.17382812 132.64746094 C350.73462495 135.09614687 353.34750031 137.45705476 356.02929688 139.77246094 C359.92164413 143.14778554 363.57007446 146.71787162 367.18554688 150.38574219 C367.77529297 150.98 368.36503906 151.57425781 368.97265625 152.18652344 C370.12398185 153.34681375 371.27409124 154.50831242 372.42285156 155.67114258 C373.80336681 157.06428188 375.19475955 158.44662489 376.58789062 159.82714844 C380.75886691 164.03868527 384.7215604 168.4429451 388.70263672 172.83300781 C389.79396875 174.03581779 390.88965273 175.23467707 391.98632812 176.43261719 C397.63726743 182.72009908 403.44470293 189.54078681 406.99804688 197.26074219 C407.65804687 197.26074219 408.31804688 197.26074219 408.99804688 197.26074219 C410.52641999 199.05761329 411.97149415 200.92579124 413.37304688 202.82324219 C413.78224365 203.37608887 414.19144043 203.92893555 414.61303711 204.49853516 C416.5980631 207.21346137 418.47928727 209.91640853 420.06054688 212.88574219 C421.74456673 215.81919613 423.43434762 218.05303986 425.59570312 220.62402344 C430.4670635 226.65957033 434.42148423 233.17217372 438.37304688 239.82324219 C439.11878934 241.0672842 439.8650508 242.31101524 440.61181641 243.55444336 C442.07853306 246.00003005 443.54058692 248.44829984 444.99804688 250.89941406 C446.73032542 253.81079236 448.47149947 256.71653606 450.21679688 259.62011719 C451.10304377 261.10399665 451.98853895 262.58832551 452.87304688 264.07324219 C453.25895996 264.71656494 453.64487305 265.3598877 454.04248047 266.02270508 C456.00281547 269.34867172 457.643203 272.68964029 459.11279297 276.2565918 C460.20046413 278.71900012 461.43166765 281.08546403 462.67773438 283.47167969 C479.78741445 316.34226726 493.72090533 352.34084992 501.42236328 388.640625 C502.05129372 391.50308532 502.74398159 394.34534684 503.44726562 397.19042969 C506.353011 409.05356302 508.76992711 420.94905058 510.68554688 433.01074219 C510.87568359 434.18419189 511.06582031 435.3576416 511.26171875 436.56665039 C514.86461841 460.20989481 516.50931057 483.7041674 516.38916016 507.59204102 C516.37208647 511.01084281 516.38225581 514.42894226 516.39948368 517.84772015 C516.48170252 537.1570617 515.27671273 556.08020059 512.99804688 575.26074219 C512.84468872 576.55578171 512.84468872 576.55578171 512.68823242 577.87698364 C512.1505295 582.29122275 511.51667517 586.68302052 510.81054688 591.07324219 C510.60623047 592.36327148 510.40191406 593.65330078 510.19140625 594.98242188 C507.84242981 609.35534749 504.41850384 623.48257846 500.89990234 637.60644531 C500.13406031 640.709619 499.39981603 643.81640798 498.68945312 646.93261719 C490.7372114 681.34604484 476.13708358 714.50826487 460.18554688 745.90039062 C459.08056778 748.09671832 458.00202201 750.30332753 456.93554688 752.51855469 C452.96943369 760.72266372 448.55531948 768.45361754 443.63085938 776.12011719 C441.7985933 778.97456605 440.03115296 781.85786947 438.30273438 784.77636719 C433.54592167 792.78958416 428.66655942 800.40646529 422.70141602 807.58349609 C419.62136056 811.30840364 417.33429179 815.05452992 414.99804688 819.26074219 C413.99006663 820.76306682 412.95354887 822.24720155 411.87304688 823.69824219 C411.12667969 824.71724609 411.12667969 824.71724609 410.36523438 825.75683594 C409.9140625 826.253125 409.46289062 826.74941406 408.99804688 827.26074219 C408.33804688 827.26074219 407.67804687 827.26074219 406.99804688 827.26074219 C406.72347656 827.84339844 406.44890625 828.42605469 406.16601562 829.02636719 C402.61007786 835.82903074 397.09742765 841.58781143 391.99804688 847.26074219 C391.29550781 848.04449219 390.59296875 848.82824219 389.86914062 849.63574219 C387.5825395 852.18082866 385.2902669 854.72071459 382.99804688 857.26074219 C382.36358643 857.9775415 381.72912598 858.69434082 381.07543945 859.43286133 C375.39712575 865.81617315 369.48901335 871.92107607 363.43554688 877.94824219 C362.54158203 878.84607422 361.64761719 879.74390625 360.7265625 880.66894531 C354.8350956 886.55179266 348.84444158 892.21940684 342.31054688 897.38574219 C339.93056713 899.24084641 339.93056713 899.24084641 337.76757812 901.54980469 C334.79102654 904.46338268 331.67953085 906.98935943 328.37304688 909.51074219 C327.80070313 909.95675781 327.22835937 910.40277344 326.63867188 910.86230469 C324.10228197 912.80883648 322.05423154 914.24201396 318.99804688 915.26074219 C318.99804688 915.92074219 318.99804688 916.58074219 318.99804688 917.26074219 C317.20117578 918.78911531 315.33299782 920.23418946 313.43554688 921.63574219 C312.8827002 922.04493896 312.32985352 922.45413574 311.76025391 922.87573242 C309.04532769 924.86075841 306.34238053 926.74198258 303.37304688 928.32324219 C300.40404999 930.02766632 298.09996861 931.76775897 295.48632812 933.94824219 C290.20067208 938.21494762 284.64732574 941.74054228 278.81054688 945.19824219 C277.30814453 946.10002197 277.30814453 946.10002197 275.77539062 947.02001953 C273.77675476 948.21875149 271.77631299 949.41447851 269.77392578 950.60693359 C267.31649355 952.07101855 264.86460052 953.54364526 262.41601562 955.02246094 C258.95026313 957.11371286 255.48192071 959.19973762 251.99804688 961.26074219 C251.4334375 961.5981543 250.86882813 961.93556641 250.28710938 962.28320312 C246.94249582 964.24723453 243.61000035 965.88412807 240.01757812 967.36669922 C237.5269751 968.46928484 235.1315484 969.71544026 232.71679688 970.97558594 C217.15305545 979.07212509 201.3851195 985.76824597 184.92724609 991.81103516 C182.34432738 992.76000739 179.76827412 993.72448584 177.19775391 994.70654297 C137.09600585 1010.02503987 93.74353918 1019.48432362 50.99804688 1023.26074219 C50.05126068 1023.34693817 49.10447449 1023.43313416 48.1289978 1023.52194214 C39.71612893 1024.23466265 31.34798471 1024.44027723 22.90820312 1024.46386719 C22.20735533 1024.46669456 21.50650753 1024.46952194 20.78442192 1024.472435 C17.06046063 1024.487315 13.33653682 1024.49660957 9.61254883 1024.50097656 C6.6081906 1024.50531824 3.60412653 1024.51905692 0.59985352 1024.54199219 C-56.91417833 1024.97207215 -116.32772586 1015.43710691 -170.05517578 994.40380859 C-173.16394414 993.19790524 -176.28895085 992.04440384 -179.41992188 990.89746094 C-196.3432204 984.63855465 -213.03025863 977.56369053 -228.71679688 968.59277344 C-232.10469843 966.67245614 -235.47074706 965.28230494 -239.13427734 963.98583984 C-242.15632359 962.81257483 -244.81143404 961.14815834 -247.56445312 959.44824219 C-248.8638203 958.6498828 -250.16330797 957.85171952 -251.46289062 957.05371094 C-252.17541992 956.61333496 -252.88794922 956.17295898 -253.62207031 955.71923828 C-256.29128117 954.08342933 -258.97741586 952.47775749 -261.66601562 950.87402344 C-272.84599451 944.18244374 -283.50283431 937.39535969 -293.59960938 929.13574219 C-295.97928743 927.27843248 -298.45359226 925.86357685 -301.08789062 924.40136719 C-304.57732942 922.32194652 -307.9935142 919.99568666 -311.00195312 917.26074219 C-311.00195312 916.60074219 -311.00195312 915.94074219 -311.00195312 915.26074219 C-311.58460938 914.98746094 -312.16726563 914.71417969 -312.76757812 914.43261719 C-314.95810182 913.28374112 -316.79329972 912.01615349 -318.75195312 910.51074219 C-320.86471578 908.89371155 -322.97523847 907.2802739 -325.12304688 905.70996094 C-329.08889258 902.80867117 -332.60428848 899.83264605 -336.00195312 896.26074219 C-339.31228343 892.79010533 -342.49680689 889.49034629 -346.50195312 886.82324219 C-349.84616863 884.53006584 -352.19498023 881.86227215 -354.78710938 878.76464844 C-357.71855811 875.45061203 -360.85448488 872.36836386 -364.00195312 869.26074219 C-368.23967575 865.0632267 -372.38554945 860.86435538 -376.23632812 856.30371094 C-378.10050512 854.14670968 -380.0423372 852.07168501 -381.99365234 849.99365234 C-394.60223976 836.51638818 -394.60223976 836.51638818 -398.02929688 829.01074219 C-398.94143077 826.90559135 -398.94143077 826.90559135 -402.00195312 826.26074219 C-405.78248518 821.77378628 -409.23222817 816.87750366 -412.00195312 811.69824219 C-413.71576446 808.75262896 -415.42675846 806.4833236 -417.60351562 803.89355469 C-422.47315653 797.85921956 -426.42640488 791.34760326 -430.37695312 784.69824219 C-431.12269559 783.45420017 -431.86895705 782.21046913 -432.61572266 780.96704102 C-434.08243931 778.52145433 -435.54449317 776.07318454 -437.00195312 773.62207031 C-438.73423167 770.71069202 -440.47540572 767.80494832 -442.22070312 764.90136719 C-443.10695002 763.41748772 -443.9924452 761.93315887 -444.87695312 760.44824219 C-445.26286621 759.80491943 -445.6487793 759.16159668 -446.04638672 758.4987793 C-448.00672172 755.17281265 -449.64710925 751.83184409 -451.11669922 748.26489258 C-452.20437038 745.80248426 -453.4355739 743.43602034 -454.68164062 741.04980469 C-471.79062411 708.18055538 -485.72367615 672.1832815 -493.42626953 635.88525391 C-494.05690896 633.01020136 -494.74898844 630.15429993 -495.45117188 627.29589844 C-498.29622826 615.62377985 -500.72569302 603.92680031 -502.68945312 592.07324219 C-502.9746582 590.39705811 -502.9746582 590.39705811 -503.265625 588.68701172 C-507.07929009 564.65892844 -508.51333412 540.66320482 -508.39306641 516.37182617 C-508.37595882 512.89134856 -508.38618268 509.41155908 -508.40339088 505.93110466 C-508.48312391 486.85059536 -507.3216496 468.2127038 -505.00195312 449.26074219 C-504.90207092 448.42533905 -504.80218872 447.58993591 -504.69927979 446.72921753 C-504.17335906 442.3921438 -503.56056967 438.07560891 -502.87695312 433.76074219 C-502.67521484 432.47723877 -502.47347656 431.19373535 -502.265625 429.87133789 C-499.5883474 413.44949195 -495.52940895 397.31075652 -491.48175049 381.18322754 C-490.83842489 378.6055059 -490.21544641 376.02297235 -489.59179688 373.44042969 C-481.49695477 340.55763411 -467.57812224 308.95957363 -452.30371094 278.84960938 C-451.13739445 276.53010074 -449.99591891 274.20120689 -448.86914062 271.86230469 C-444.92582233 263.70595537 -440.53095231 256.02343846 -435.63476562 248.40136719 C-433.80249955 245.54691832 -432.03505921 242.66361491 -430.30664062 239.74511719 C-425.54982792 231.73190021 -420.67046567 224.11501909 -414.70532227 216.93798828 C-411.62526681 213.21308074 -409.33819804 209.46695445 -407.00195312 205.26074219 C-405.99397288 203.75841756 -404.95745512 202.27428282 -403.87695312 200.82324219 C-403.379375 200.14390625 -402.88179688 199.46457031 -402.36914062 198.76464844 C-401.91796875 198.26835937 -401.46679688 197.77207031 -401.00195312 197.26074219 C-400.34195313 197.26074219 -399.68195313 197.26074219 -399.00195312 197.26074219 C-398.74929688 196.7103125 -398.49664062 196.15988281 -398.23632812 195.59277344 C-393.45392661 186.55766679 -386.10708579 178.9800403 -379.05175781 171.68920898 C-375.51356338 168.00669082 -372.37389377 164.22775563 -369.41674805 160.06103516 C-367.391697 157.48420574 -364.9776075 155.53273065 -362.47070312 153.44042969 C-359.1664758 150.52308974 -356.09786098 147.39629401 -353.00195312 144.26074219 C-348.83189922 140.05079653 -344.66117655 135.93421705 -340.13085938 132.10839844 C-338.32959562 130.5450998 -336.58211382 128.94931873 -334.84179688 127.31933594 C-334.27146729 126.7858252 -333.7011377 126.25231445 -333.11352539 125.70263672 C-331.98715016 124.64577909 -330.86374844 123.58573993 -329.74389648 122.52197266 C-326.36750975 119.36129808 -322.90209835 116.77573834 -319.00195312 114.26074219 C-317.90026973 113.36621293 -316.81197037 112.45427402 -315.75195312 111.51074219 C-313.00195312 109.26074219 -313.00195312 109.26074219 -311.00195312 109.26074219 C-310.67195312 108.27074219 -310.34195313 107.28074219 -310.00195312 106.26074219 C-307.81445313 104.42871094 -307.81445313 104.42871094 -305.00195312 102.44824219 C-304.00164062 101.74054688 -303.00132812 101.03285156 -301.97070312 100.30371094 C-298.76641418 98.0986542 -295.53704154 95.93865221 -292.28320312 93.80761719 C-289.79274346 92.11888084 -287.40560366 90.32072 -285.00195312 88.51074219 C-279.10694665 84.18992381 -272.88709199 80.57293301 -266.56835938 76.92089844 C-261.03573791 73.71881134 -255.59523987 70.36973378 -250.15405273 67.01538086 C-238.40800713 59.79046486 -238.40800713 59.79046486 -232.02148438 57.15478516 C-229.53088135 56.05219953 -227.13545465 54.80604412 -224.72070312 53.54589844 C-209.10690267 45.42402973 -193.28244058 38.73000647 -176.77587891 32.65869141 C-173.24146807 31.35638595 -169.72902006 30.00073155 -166.21679688 28.63964844 C-138.22309391 17.98459154 -108.51625411 11.1563683 -79.00195312 6.26074219 C-77.36709961 5.98689697 -77.36709961 5.98689697 -75.69921875 5.70751953 C-72.28189802 5.14467248 -68.86192782 4.60380103 -65.43945312 4.07324219 C-64.46065186 3.91807129 -63.48185059 3.76290039 -62.47338867 3.60302734 C-41.74175287 0.54734784 -20.92603295 -0.06664342 0 0 Z " fill="#1794D4" transform="translate(508.001953125,-0.2607421875)"/>
<path d="M0 0 C4.98918907 0.96706749 8.13065988 3.8511577 12 7 C12.78890625 7.6290625 13.5778125 8.258125 14.390625 8.90625 C35.28842593 26.51823317 46.4097105 54.87543098 51.578125 81.01660156 C52.17000725 83.79927018 52.96676519 86.51593034 53.75 89.25 C55.45231525 95.80161329 55.26854392 102.27645588 55 109 C55.72960937 108.62488281 56.45921875 108.24976563 57.2109375 107.86328125 C89.38816617 92.0924667 134.59710494 89.01153498 168.6875 100.375 C173.9089623 102.38890515 178.42026298 104.79418408 183 108 C182.41748138 113.24266758 179.88703376 117.4877217 177.4375 122.0625 C176.98640869 122.90868896 176.53531738 123.75487793 176.07055664 124.62670898 C170.71938211 134.53464714 164.86896797 143.44904441 157.140625 151.703125 C155.23642192 153.74632101 153.46266609 155.84567222 151.6875 158 C138.12043999 173.38215421 117.81878665 185.82614576 98.375 192.0625 C97.60937744 192.31217529 96.84375488 192.56185059 96.05493164 192.8190918 C82.42792091 197.18091372 69.3697779 200.22809171 55 200 C54.81824219 200.72703125 54.63648438 201.4540625 54.44921875 202.203125 C53.91674233 204.33303068 53.3799298 206.46185493 52.83984375 208.58984375 C52.32033638 210.69928531 51.82773842 212.81580485 51.37890625 214.94140625 C49.67159886 222.73563564 46.62643705 229.59559657 43.11572266 236.71533203 C41.86970675 239.26680181 40.65779797 241.83293397 39.44921875 244.40234375 C25.47853369 274.05650833 9.46554145 301.28281243 -11 327 C-11.47050781 327.59506348 -11.94101562 328.19012695 -12.42578125 328.80322266 C-17.04211829 334.62545269 -21.89866989 340.19974098 -26.90625 345.6875 C-28.68904386 347.65655591 -30.41118447 349.65890202 -32.125 351.6875 C-40.32525132 361.09762447 -49.42328524 370.00105817 -59 378 C-59.87914062 378.76828125 -60.75828125 379.5365625 -61.6640625 380.328125 C-81.9756225 398.00100313 -104.25778716 413.31955762 -128 426 C-128.90218262 426.48388184 -129.80436523 426.96776367 -130.73388672 427.46630859 C-152.49629517 439.09862392 -152.49629517 439.09862392 -163 443 C-164.14339844 443.433125 -165.28679687 443.86625 -166.46484375 444.3125 C-172.50007008 446.57084732 -178.56187131 448.75542213 -184.625 450.9375 C-185.80707031 451.36740234 -186.98914063 451.79730469 -188.20703125 452.24023438 C-196.38588829 455.17909304 -204.61404872 457.72115144 -213 460 C-214.15097168 460.31529663 -214.15097168 460.31529663 -215.32519531 460.63696289 C-223.47787394 462.83073365 -231.64888991 464.58881284 -239.9777832 465.96118164 C-243.33334451 466.51487605 -246.6230534 467.14387468 -249.92578125 467.95703125 C-256.50217568 469.44868637 -263.22466559 470.06626267 -269.91845703 470.80493164 C-272.23144567 471.06045028 -274.54347426 471.32354324 -276.85546875 471.58789062 C-281.23441569 472.08433443 -285.6162658 472.54804345 -290 473 C-291.03406982 473.11037598 -292.06813965 473.22075195 -293.13354492 473.33447266 C-304.65290198 474.40170297 -316.25439216 474.24116305 -327.8125 474.25 C-328.96429749 474.25167175 -330.11609497 474.25334351 -331.30279541 474.25506592 C-350.03854056 474.25669299 -368.42177353 473.48195535 -387 471 C-388.8715979 470.75382935 -388.8715979 470.75382935 -390.78100586 470.50268555 C-396.83235738 469.67694902 -402.42484109 468.67707822 -408.22265625 466.76953125 C-411.01000122 465.99722892 -413.7802445 465.51616635 -416.63671875 465.07641602 C-431.30452064 462.8108371 -445.65260281 458.22260154 -459.20703125 452.19140625 C-461.84338928 451.06680597 -464.48575752 450.10723796 -467.1953125 449.17578125 C-472.77760599 447.16191884 -477.95844691 444.66830397 -483.1875 441.875 C-484.09459717 441.39345459 -485.00169434 440.91190918 -485.9362793 440.41577148 C-548.65485879 406.73592189 -588.9620274 350.39245846 -609.41897583 282.9552002 C-612.23240994 273.48773359 -614.57225247 263.99600828 -616.1875 254.25 C-616.35185547 253.31285156 -616.51621094 252.37570312 -616.68554688 251.41015625 C-617.6665103 245.65146409 -618.33100779 239.93565746 -618.74731445 234.10839844 C-618.77779228 232.01622771 -618.77779228 232.01622771 -620 231 C-620.36873465 226.86370292 -620.37212017 222.71299183 -620.4375 218.5625 C-620.50614258 216.83483398 -620.50614258 216.83483398 -620.57617188 215.07226562 C-620.70976571 204.83200789 -617.39798459 198.78169747 -610.8125 191.1875 C-603.67544176 184.43363952 -594.32201801 181.8478729 -584.7787466 181.86692142 C-583.50016778 181.86355689 -583.50016778 181.86355689 -582.19575909 181.86012438 C-579.31404115 181.85376284 -576.43236819 181.85454974 -573.55064392 181.85523987 C-571.47373355 181.85210774 -569.3968238 181.84853331 -567.31991488 181.84455246 C-561.59224667 181.83482864 -555.86458844 181.83129975 -550.13691318 181.82870948 C-543.96682498 181.82482301 -537.79674564 181.81518499 -531.62666321 181.80615234 C-520.92572617 181.79119479 -510.22479046 181.7796536 -499.52384758 181.77020454 C-483.31843707 181.75579116 -467.11304413 181.73302932 -450.90764612 181.70853943 C-444.40405329 181.69874797 -437.90046004 181.68922725 -431.3968668 181.67970943 C-430.67422675 181.67865067 -429.95158671 181.6775919 -429.20704848 181.67650105 C-411.99667755 181.65133733 -394.78630338 181.62885007 -377.57592773 181.60717773 C-376.82273965 181.6062273 -376.06955157 181.60527686 -375.29353961 181.60429762 C-357.73685277 181.58216544 -340.18016498 181.56129332 -322.62347412 181.54260254 C-321.86937955 181.54179879 -321.11528497 181.54099504 -320.33833904 181.54016693 C-316.53623197 181.53611642 -312.73412489 181.53207481 -308.93201781 181.52803367 C-308.18063887 181.52723468 -307.42925992 181.52643569 -306.65511192 181.52561248 C-305.13853743 181.52400017 -303.62196294 181.52238934 -302.10538845 181.52078002 C-277.01648976 181.49411507 -251.92760692 181.46072627 -226.838727 181.42000187 C-223.29084155 181.41425234 -219.74295596 181.40859364 -216.19507027 181.40299797 C-215.49684924 181.40189617 -214.79862821 181.40079436 -214.07924897 181.39965917 C-202.8663937 181.38219008 -191.65354314 181.37199785 -180.44067708 181.36474552 C-169.15462734 181.35733133 -157.86860427 181.34273641 -146.58257084 181.32131977 C-140.47413176 181.30996081 -134.36573285 181.30179218 -128.25728226 181.30232811 C-122.65519209 181.30275848 -117.05319209 181.29395145 -111.45112509 181.27807831 C-109.43408828 181.27395273 -107.41704124 181.27310734 -105.40000235 181.27604241 C-82.50304466 181.41053084 -82.50304466 181.41053084 -60.3125 176.4375 C-55.45871254 174.7389264 -51.0812607 173.58052914 -46 173 C-46 172.34 -46 171.68 -46 171 C-45.09121094 170.61521484 -45.09121094 170.61521484 -44.1640625 170.22265625 C-33.76207028 165.46974596 -24.03160356 157.51732296 -19 147 C-19.25927853 143.71791326 -20.84988704 141.46487864 -22.625 138.75 C-35.99299636 116.83419828 -41.88973908 90.29290462 -36 65 C-34.23351818 58.67092689 -32.08611642 52.47650289 -29.83886719 46.30419922 C-29.15653697 44.42997552 -28.50014014 42.54632592 -27.8515625 40.66015625 C-22.0524335 25.11587438 -11.70074021 11.55551826 0 0 Z " fill="#FEFEFE" transform="translate(767,330)"/>
<path d="M0 0 C24.42 0 48.84 0 74 0 C74 24.42 74 48.84 74 74 C49.58 74 25.16 74 0 74 C0 49.58 0 25.16 0 0 Z " fill="#F9FCFD" transform="translate(621,402)"/>
<path d="M0 0 C24.42 0 48.84 0 74 0 C74 24.42 74 48.84 74 74 C49.58 74 25.16 74 0 74 C0 49.58 0 25.16 0 0 Z " fill="#F8FCFD" transform="translate(402,402)"/>
<path d="M0 0 C24.09 0 48.18 0 73 0 C73 24.42 73 48.84 73 74 C48.91 74 24.82 74 0 74 C0 49.58 0 25.16 0 0 Z " fill="#FAFDFE" transform="translate(293,402)"/>
<path d="M0 0 C24.42 0 48.84 0 74 0 C74 24.09 74 48.18 74 73 C49.58 73 25.16 73 0 73 C0 48.91 0 24.82 0 0 Z " fill="#FAFDFE" transform="translate(402,293)"/>
<path d="M0 0 C24.09 0 48.18 0 73 0 C73 24.09 73 48.18 73 73 C48.91 73 24.82 73 0 73 C0 48.91 0 24.82 0 0 Z " fill="#FDFEFE" transform="translate(512,403)"/>
<path d="M0 0 C24.09 0 48.18 0 73 0 C73 24.09 73 48.18 73 73 C48.91 73 24.82 73 0 73 C0 48.91 0 24.82 0 0 Z " fill="#FDFEFE" transform="translate(512,293)"/>
<path d="M0 0 C24.09 0 48.18 0 73 0 C73 24.09 73 48.18 73 73 C48.91 73 24.82 73 0 73 C0 48.91 0 24.82 0 0 Z " fill="#FCFDFE" transform="translate(293,293)"/>
<path d="M0 0 C24.09 0 48.18 0 73 0 C73 23.76 73 47.52 73 72 C48.91 72 24.82 72 0 72 C0 48.24 0 24.48 0 0 Z " fill="#FEFEFE" transform="translate(512,184)"/>
<path d="M0 0 C23.76 0 47.52 0 72 0 C72 23.76 72 47.52 72 72 C48.24 72 24.48 72 0 72 C0 48.24 0 24.48 0 0 Z " fill="#FEFEFE" transform="translate(184,403)"/>
</svg>
