<svg width="174.65px" height="122px" xmlns="http://www.w3.org/2000/svg" viewBox="162.675 20 174.65 122" style="background: rgba(0, 0, 0, 0);" preserveAspectRatio="xMidYMid"><defs><linearGradient id="editing-outline-gradient" x1="-0.41354545764260087" x2="1.4135454576426008" y1="0.09326335692419985" y2="0.9067366430758002"><stop offset="0" stop-color="#ee4208"></stop><stop offset="1" stop-color="#4139ff"></stop></linearGradient><filter id="editing-outline" x="-100%" y="-100%" width="300%" height="300%"><feMorphology in="SourceGraphic" operator="dilate" radius="1" result="outline"></feMorphology><feComposite operator="out" in="outline" in2="SourceAlpha"></feComposite></filter></defs><g filter="url(#editing-outline)"><g transform="translate(195.41382384300232, 98.68000221252441)"><path d="M17.60-30.34L17.60-30.34L17.60-30.34Q21.06-33.92 28.35-33.92L28.35-33.92L28.35-33.92Q32.38-33.92 34.59-31.78L34.59-31.78L34.59-31.78Q36.80-29.63 36.80-25.70L36.80-25.70L36.80-25.70Q36.80-21.76 34.59-18.98L34.59-18.98L34.59-18.98Q32.38-16.19 28.29-15.04L28.29-15.04L28.29-15.04Q28.61-13.76 29.06-12.42L29.06-12.42L29.95-9.86L29.95-9.86Q31.17-6.59 32.13-5.44L32.13-5.44L32.13-5.44Q33.09-4.29 34.37-3.90L34.37-3.90L34.37-3.90Q33.66-1.28 31.10 0.13L31.10 0.13L31.10 0.13Q29.06 1.28 26.24 1.28L26.24 1.28L26.24 1.28Q17.98 1.28 16.90-11.46L16.90-11.46L16.90-11.46Q16.70-13.25 16.70-15.04L16.70-15.04L16.70-15.04Q19.90-15.94 22.14-18.94L22.14-18.94L22.14-18.94Q24.38-21.95 24.38-25.47L24.38-25.47L24.38-25.47Q24.38-28.99 21.89-28.99L21.89-28.99L21.89-28.99Q20.10-28.99 18.69-27.01L18.69-27.01L18.69-27.01Q17.28-25.02 16.64-21.63L16.64-21.63L12.42 0L-0.51 1.28L8.45-44.80L21.31-46.08L19.84-38.46L19.84-38.46Q18.88-33.09 17.60-30.34ZM65.66-10.82L65.66-10.82L65.66-10.82Q67.26-9.73 67.26-7.33L67.26-7.33L67.26-7.33Q67.26-4.93 66.05-3.39L66.05-3.39L66.05-3.39Q64.83-1.86 62.85-0.83L62.85-0.83L62.85-0.83Q58.75 1.28 54.34 1.28L54.34 1.28L54.34 1.28Q49.92 1.28 47.33 0.32L47.33 0.32L47.33 0.32Q44.74-0.64 43.01-2.43L43.01-2.43L43.01-2.43Q39.62-5.82 39.62-12.03L39.62-12.03L39.62-12.03Q39.62-21.70 44.86-27.58L44.86-27.58L44.86-27.58Q50.50-33.92 60.29-33.92L60.29-33.92L60.29-33.92Q66.37-33.92 69.38-31.36L69.38-31.36L69.38-31.36Q71.62-29.44 71.62-26.30L71.62-26.30L71.62-26.30Q71.62-15.04 52.16-15.04L52.16-15.04L52.16-15.04Q51.90-13.38 51.90-11.97L51.90-11.97L51.90-11.97Q51.90-9.02 53.22-7.90L53.22-7.90L53.22-7.90Q54.53-6.78 56.96-6.78L56.96-6.78L56.96-6.78Q59.39-6.78 61.98-7.90L61.98-7.90L61.98-7.90Q64.58-9.02 65.66-10.82ZM52.61-17.79L52.61-17.79L52.61-17.79Q57.15-17.79 59.78-20.61L59.78-20.61L59.78-20.61Q62.40-23.30 62.40-27.58L62.40-27.58L62.40-27.58Q62.40-29.06 61.86-29.86L61.86-29.86L61.86-29.86Q61.31-30.66 60.22-30.66L60.22-30.66L60.22-30.66Q59.14-30.66 58.21-30.24L58.21-30.24L58.21-30.24Q57.28-29.82 56.32-28.42L56.32-28.42L56.32-28.42Q53.95-25.22 52.61-17.79ZM100.86 1.28L100.86 1.28L100.86 1.28Q93.12 1.28 93.12-4.74L93.12-4.74L93.12-4.74Q93.18-6.40 93.70-9.22L93.70-9.22L94.85-15.10L94.85-15.10Q96.58-23.42 96.58-25.28L96.58-25.28L96.58-25.28Q96.58-28.99 94.40-28.99L94.40-28.99L94.40-28.99Q90.75-28.99 88.83-19.46L88.83-19.46L85.06 0L72.19 1.28L78.85-32.70L89.34-33.92L88.32-27.65L88.32-27.65Q91.33-33.92 100.54-33.92L100.54-33.92L100.54-33.92Q105.02-33.92 106.91-32.03L106.91-32.03L106.91-32.03Q108.80-30.14 108.80-25.92L108.80-25.92L108.80-25.92Q108.80-21.95 106.75-12.67L106.75-12.67L106.75-12.67Q105.79-8.51 105.79-6.94L105.79-6.94L105.79-6.94Q105.79-5.38 106.66-4.48L106.66-4.48L106.66-4.48Q107.52-3.58 108.80-3.46L108.80-3.46L108.80-3.46Q108.16-1.28 105.95 0L105.95 0L105.95 0Q103.74 1.28 100.86 1.28Z" fill="url(#editing-outline-gradient)"></path></g></g><style>text {
  font-size: 64px;
  font-family: Arial Black;
  dominant-baseline: central;
  text-anchor: middle;
}</style></svg>